<?xml version="1.0" standalone="no"?>
<!DOCTYPE svg PUBLIC "-//W3C//DTD SVG 20010904//EN"
 "http://www.w3.org/TR/2001/REC-SVG-20010904/DTD/svg10.dtd">
<svg version="1.0" xmlns="http://www.w3.org/2000/svg"
 width="232.000000pt" height="232.000000pt" viewBox="0 0 232.000000 232.000000"
 preserveAspectRatio="xMidYMid meet">
<metadata>
Created by potrace 1.14, written by Peter Selinger 2001-2017
</metadata>
<g transform="translate(0.000000,232.000000) scale(0.100000,-0.100000)"
fill="#000000" stroke="none">
<path d="M1924 1846 c-27 -27 -34 -42 -34 -73 0 -82 80 -133 154 -98 76 36 81
151 7 189 -50 26 -88 21 -127 -18z m117 -37 c23 -23 19 -54 -13 -81 -25 -22
-37 -22 -66 -2 -42 29 -18 104 35 104 12 0 32 -9 44 -21z"/>
<path d="M1845 1823 c-101 -20 -250 -89 -358 -168 -98 -71 -135 -104 -115
-105 9 0 21 8 27 18 5 9 11 16 13 14 2 -2 46 17 98 42 110 52 196 76 299 83
62 5 71 8 57 19 -16 11 -29 11 -106 -1 -77 -11 -135 -31 -225 -75 -55 -27 -89
-41 -75 -30 83 64 266 129 361 130 35 0 37 2 41 38 3 20 5 37 4 38 -1 0 -10
-1 -21 -3z"/>
<path d="M2132 1753 c-2 -28 -35 -81 -58 -95 -9 -6 -6 -22 11 -64 86 -212 -96
-576 -395 -790 -81 -58 -207 -119 -291 -140 -125 -32 -256 -6 -320 63 -27 28
-59 84 -59 101 0 5 25 22 56 38 68 34 127 99 148 161 67 198 -89 362 -294 309
-30 -8 -56 -13 -57 -12 -1 1 8 18 22 38 51 75 177 101 203 42 13 -28 30 -29
118 -10 83 18 84 19 72 64 -27 99 -118 155 -252 155 -125 1 -217 -47 -300
-157 -21 -28 -42 -60 -46 -71 -5 -14 -8 -6 -8 27 -1 50 -27 111 -59 140 -82
75 -269 82 -368 15 -49 -32 -94 -88 -110 -136 -20 -59 -20 -58 18 -65 17 -3
43 -8 57 -11 94 -19 88 -20 103 18 19 44 52 67 98 67 85 0 95 -96 11 -120 -20
-5 -62 -10 -93 -10 l-57 0 -20 -72 c-10 -40 -17 -76 -15 -80 2 -5 32 -8 66 -8
76 0 107 -18 107 -61 0 -37 -29 -66 -74 -74 -54 -11 -88 11 -106 68 -9 27 -18
46 -20 44 -3 -3 -18 -7 -35 -10 -141 -23 -148 -27 -141 -80 19 -131 138 -211
301 -202 127 7 224 71 265 172 18 46 9 142 -16 179 l-21 29 44 41 43 41 -7
-36 c-5 -20 -8 -76 -7 -126 1 -76 5 -99 28 -147 49 -103 149 -159 275 -154
l60 2 11 -44 c37 -150 152 -226 329 -218 345 16 771 378 891 761 31 99 36 242
9 311 -20 53 -82 134 -103 134 -6 0 -13 -12 -14 -27z m-1114 -599 c50 -57 4
-144 -77 -144 -38 0 -79 24 -82 48 0 4 -2 16 -4 26 -9 49 59 109 114 100 14
-3 36 -16 49 -30z"/>
<path d="M1560 1605 c-78 -21 -100 -34 -155 -88 -139 -140 -192 -401 -109
-544 32 -56 94 -107 152 -126 60 -19 163 -16 231 9 103 36 205 169 236 304 2
8 8 35 14 60 16 70 7 178 -19 232 -27 58 -80 111 -137 139 -51 25 -151 31
-213 14z m127 -192 c31 -28 42 -66 38 -131 -8 -161 -92 -276 -187 -258 -46 8
-69 49 -70 124 -1 96 34 193 89 243 46 43 97 51 130 22z"/>
<path d="M1340 1530 c-9 -6 -10 -10 -3 -10 6 0 15 5 18 10 8 12 4 12 -15 0z"/>
<path d="M2180 1054 c-92 -139 -284 -318 -435 -405 -68 -40 -197 -95 -238
-103 -15 -2 -31 -7 -37 -11 -6 -3 -50 -8 -100 -10 -186 -8 -309 68 -361 225
-7 18 -7 14 -3 -15 23 -164 165 -268 349 -258 154 9 342 87 505 210 133 101
288 278 359 411 22 42 5 22 -39 -44z"/>
</g>
</svg>
